<svg xmlns="http://www.w3.org/2000/svg" aria-hidden="true" overflow="hidden" style="position:absolute;width:0;height:0">
    <defs>

        <symbol id="icon-logo" width="145" height="13" viewBox="0 0 145 13" fill="none"
            xmlns="http://www.w3.org/2000/svg">
            <path
                d="M6.274 7.58187C6.37194 7.76951 6.46124 7.96594 6.5419 8.17118C6.62832 8.37055 6.71186 8.57285 6.79251 8.77808C6.87317 8.56698 6.95671 8.35882 7.04313 8.15359C7.12955 7.94835 7.22173 7.75192 7.31967 7.56428L11.0184 0.518944C11.0645 0.430987 11.1106 0.360622 11.1567 0.307848C11.2085 0.255074 11.2632 0.216959 11.3209 0.193504C11.3842 0.170049 11.4534 0.155389 11.5283 0.149526C11.6032 0.143662 11.6925 0.14073 11.7962 0.14073H13.5505V12.8593H11.5023V4.64411C11.5023 4.49165 11.5052 4.32454 11.511 4.14276C11.5225 3.96098 11.5369 3.77627 11.5542 3.58863L7.77769 10.8011C7.69127 10.9653 7.57892 11.0943 7.44065 11.1881C7.30238 11.276 7.14107 11.32 6.95671 11.32H6.63696C6.4526 11.32 6.29128 11.276 6.15301 11.1881C6.01474 11.0943 5.9024 10.9653 5.81598 10.8011L1.98763 3.56225C2.01068 3.75575 2.02508 3.94632 2.03084 4.13396C2.04236 4.31574 2.04812 4.48579 2.04812 4.64411V12.8593H0V0.14073H1.7543C1.858 0.14073 1.9473 0.143662 2.0222 0.149526C2.09709 0.155389 2.16335 0.170049 2.22096 0.193504C2.28434 0.216959 2.34195 0.255074 2.3938 0.307848C2.44565 0.360622 2.49462 0.430987 2.54071 0.518944L6.274 7.58187Z"
                fill="black" />
            <path
                d="M35.6942 12.8593H33.8967C33.695 12.8593 33.528 12.8094 33.3954 12.7097C33.2687 12.6042 33.1765 12.4752 33.1189 12.3227L32.1856 9.72801H27.0091L26.0758 12.3227C26.0297 12.4576 25.9375 12.5807 25.7992 12.6922C25.6667 12.8036 25.5025 12.8593 25.3066 12.8593H23.5005L28.4091 0.14073H30.7856L35.6942 12.8593ZM27.6054 8.05683H31.5893L30.0683 3.82612C29.9992 3.63848 29.9214 3.41858 29.835 3.16644C29.7543 2.90843 29.6737 2.6299 29.593 2.33085C29.5124 2.6299 29.4317 2.90843 29.351 3.16644C29.2761 3.42445 29.2013 3.6502 29.1264 3.84371L27.6054 8.05683Z"
                fill="black" />
            <path
                d="M46.8415 0.14073C46.9452 0.14073 47.0316 0.146594 47.1008 0.158321C47.1699 0.164185 47.2304 0.181777 47.2823 0.211095C47.3399 0.234551 47.3946 0.272666 47.4465 0.325439C47.4983 0.37235 47.5559 0.436851 47.6193 0.518944L54.1785 9.02436C54.1554 8.81913 54.1381 8.61976 54.1266 8.42625C54.1209 8.22688 54.118 8.04217 54.118 7.87212V0.14073H56.1661V12.8593H54.9649C54.7805 12.8593 54.6279 12.83 54.5069 12.7713C54.3859 12.7127 54.2678 12.6071 54.1525 12.4547L47.6193 3.98444C47.6366 4.17208 47.6481 4.35972 47.6539 4.54736C47.6654 4.72914 47.6711 4.89626 47.6711 5.04871V12.8593H45.623V0.14073H46.8415Z"
                fill="black" />
            <path d="M69.9475 12.8593H67.6142V0.14073H69.9475V12.8593Z" fill="black" />
            <path d="M89.2872 0.14073V2.023H83.7477V5.78755H88.423V7.67862H83.7477V12.8593H81.4058V0.14073H89.2872Z"
                fill="black" />
            <path
                d="M107.634 0.14073V2.023H102.095V5.55007H106.459V7.37077H102.095V10.9682H107.634V12.8593H99.7529V0.14073H107.634Z"
                fill="black" />
            <path
                d="M124.983 2.45399C124.92 2.58299 124.845 2.67388 124.758 2.72666C124.678 2.77943 124.58 2.80582 124.465 2.80582C124.349 2.80582 124.22 2.76184 124.076 2.67388C123.932 2.58006 123.762 2.47745 123.566 2.36603C123.37 2.25462 123.14 2.15494 122.874 2.06698C122.615 1.97316 122.307 1.92625 121.95 1.92625C121.627 1.92625 121.345 1.9673 121.103 2.04939C120.867 2.12562 120.665 2.2341 120.498 2.37483C120.337 2.51556 120.216 2.68561 120.135 2.88498C120.054 3.07848 120.014 3.29251 120.014 3.52706C120.014 3.82612 120.095 4.07533 120.256 4.27469C120.423 4.47406 120.642 4.64411 120.913 4.78484C121.184 4.92557 121.492 5.05165 121.837 5.16306C122.183 5.27447 122.535 5.39468 122.892 5.52368C123.255 5.64682 123.609 5.79341 123.955 5.96346C124.3 6.12765 124.609 6.33875 124.879 6.59675C125.15 6.84889 125.366 7.15968 125.528 7.52909C125.695 7.89851 125.778 8.34709 125.778 8.87483C125.778 9.44948 125.68 9.98895 125.484 10.4932C125.294 10.9917 125.012 11.4285 124.637 11.8038C124.269 12.1732 123.816 12.4664 123.281 12.6834C122.745 12.8945 122.131 13 121.44 13C121.042 13 120.651 12.959 120.265 12.8769C119.879 12.8006 119.507 12.6892 119.15 12.5426C118.798 12.396 118.467 12.2201 118.156 12.0149C117.851 11.8097 117.577 11.581 117.335 11.3288L118.009 10.1942C118.072 10.1121 118.147 10.0447 118.234 9.99188C118.326 9.93324 118.427 9.90392 118.536 9.90392C118.68 9.90392 118.836 9.96549 119.003 10.0886C119.17 10.2059 119.366 10.3378 119.591 10.4844C119.821 10.631 120.089 10.7659 120.394 10.889C120.705 11.0063 121.077 11.065 121.509 11.065C122.172 11.065 122.684 10.9066 123.047 10.59C123.41 10.2675 123.592 9.80717 123.592 9.20907C123.592 8.87483 123.508 8.60216 123.341 8.39107C123.18 8.17997 122.964 8.00406 122.693 7.86333C122.422 7.71673 122.114 7.59359 121.768 7.49391C121.423 7.39423 121.071 7.28575 120.714 7.16847C120.357 7.05119 120.005 6.91046 119.66 6.74628C119.314 6.58209 119.006 6.36806 118.735 6.10419C118.464 5.84032 118.245 5.51195 118.078 5.11908C117.917 4.72034 117.836 4.23072 117.836 3.6502C117.836 3.18696 117.926 2.73545 118.104 2.29567C118.289 1.85589 118.554 1.46594 118.899 1.12584C119.251 0.785746 119.68 0.51308 120.187 0.307848C120.694 0.102616 121.273 0 121.924 0C122.661 0 123.341 0.117275 123.963 0.351826C124.586 0.586377 125.116 0.914749 125.553 1.33694L124.983 2.45399Z"
                fill="black" />
            <path d="M145 0.14073V2.08457H141.241V12.8593H138.916V2.08457H135.14V0.14073H145Z" fill="black" />
        </symbol>

        <symbol id="icon-search" width="20" height="20" viewBox="0 0 20 20" fill="none"
            xmlns="http://www.w3.org/2000/svg">
            <path fill-rule="evenodd" clip-rule="evenodd"
                d="M15.4138 13.8394L19.8574 18.2892C20.0558 18.5099 20.046 18.8479 19.8352 19.0568L19.0575 19.8355C18.9532 19.9408 18.8113 20 18.6632 20C18.5151 20 18.3731 19.9408 18.2688 19.8355L13.8252 15.3857C13.7023 15.2625 13.5907 15.1285 13.4919 14.9852L12.6587 13.8727C11.2802 14.9751 9.56825 15.5753 7.80409 15.5748C4.16878 15.5874 1.00983 13.0762 0.197438 9.52789C-0.614957 5.97956 1.13601 2.3411 4.41372 0.766571C7.69143 -0.807953 11.6211 0.101681 13.8763 2.95694C16.1314 5.81221 16.1102 9.85107 13.8252 12.6824L14.9361 13.45C15.1096 13.5612 15.2698 13.6918 15.4138 13.8394ZM2.25 7.78759C2.25 10.8595 4.73684 13.3498 7.80451 13.3498C9.27766 13.3498 10.6905 12.7638 11.7321 11.7207C12.7738 10.6776 13.359 9.2628 13.359 7.78759C13.359 4.71565 10.8722 2.22534 7.80451 2.22534C4.73684 2.22534 2.25 4.71565 2.25 7.78759Z"
                fill="black" />
        </symbol>

        <symbol id="icon-burger" width="34" height="22" viewBox="0 0 34 22" fill="none"
            xmlns="http://www.w3.org/2000/svg">
            <line y1="1" x2="34" y2="1" stroke="black" stroke-width="2" />
            <line y1="11" x2="34" y2="11" stroke="black" stroke-width="2" />
            <line y1="21" x2="34" y2="21" stroke="black" stroke-width="2" />
        </symbol>

        <symbol id="icon-close" width="30" height="30" viewBox="0 0 31 30" fill="none"
            xmlns="http://www.w3.org/2000/svg">
            <rect x="1.41431" width="40" height="2" transform="rotate(45 1.41431 0)" fill="black" />
            <rect x="0.414307" y="28.2842" width="40" height="2" transform="rotate(-45 0.414307 28.2842)"
                fill="black" />
        </symbol>

        <symbol id="icon-arrow" viewBox="0 0 17 12" xmlns="http://www.w3.org/2000/svg">
            <path
                d="M15.9321 6.05328C16.225 5.76039 16.225 5.28551 15.9321 4.99262L11.1591 0.21965C10.8663 -0.0732436 10.3914 -0.0732437 10.0985 0.21965C9.80559 0.512543 9.80559 0.987417 10.0985 1.28031L14.3411 5.52295L10.0985 9.76559C9.80559 10.0585 9.80559 10.5334 10.0985 10.8263C10.3914 11.1191 10.8663 11.1191 11.1591 10.8263L15.9321 6.05328ZM-4.39065e-08 6.27295L15.4018 6.27295L15.4018 4.77295L4.39065e-08 4.77295L-4.39065e-08 6.27295Z" />
        </symbol>

    </defs>
</svg>